<svg id="Layer_1" data-name="Layer 1" xmlns="http://www.w3.org/2000/svg" viewBox="0 0 205.71 423.9"><defs><style>.cls-1{fill:#081018;}</style></defs><title>hour</title><path class="cls-1" d="M336.1,404a8.64,8.64,0,0,1-2.6-5.8l-.7-12.8a5.62,5.62,0,0,0-5.3-5.3l-11.4-.6a1.66,1.66,0,0,1-1.1-2.8,68,68,0,0,0,14.3-70.5c-10.7-28.6-34.6-50-59.3-80a22.46,22.46,0,0,1,0-28.5c24.7-30,48.6-51.4,59.3-80A68.05,68.05,0,0,0,315,47.2a1.66,1.66,0,0,1,1.1-2.8l11.4-.6a5.7,5.7,0,0,0,5.3-5.3l.7-12.8a8.45,8.45,0,0,1,2.6-5.8L352.2,3.8A2.23,2.23,0,0,0,350.6,0H149.4a2.23,2.23,0,0,0-1.6,3.8l16.1,16.1a8.64,8.64,0,0,1,2.6,5.8l.7,12.8a5.62,5.62,0,0,0,5.3,5.3l11.4.6a1.66,1.66,0,0,1,1.1,2.8,68,68,0,0,0-14.3,70.5c10.7,28.6,34.6,50,59.3,80a22.46,22.46,0,0,1,0,28.5c-24.7,30-48.6,51.4-59.3,80A68.05,68.05,0,0,0,185,376.7a1.66,1.66,0,0,1-1.1,2.8l-11.4.6a5.7,5.7,0,0,0-5.3,5.3l-.7,12.8a8.45,8.45,0,0,1-2.6,5.8l-16.1,16.1a2.23,2.23,0,0,0,1.6,3.8H350.6a2.23,2.23,0,0,0,1.6-3.8ZM196.3,128.2a5,5,0,0,1-4.7-3.2,56.78,56.78,0,0,1-3.7-15.7c-2.2-27.2,19.4-55.8,61.5-55.8s63.7,28.6,61.5,55.8a56.78,56.78,0,0,1-3.7,15.7,4.87,4.87,0,0,1-4.7,3.2Zm49.8,156.2c0,24.2-1.6,28.1-24.9,40.5-15.4,8.2-22.9,12.8-26.1,14.9a2.22,2.22,0,0,1-3.3-1c-15.5-36.4,19.1-74,44.4-109.5a30.55,30.55,0,0,0,4.3-26.3.7.7,0,0,1,1.3-.5c3.3,7.2,4.4,16.7,4.4,31.6v50.3Zm61,54.5a2.21,2.21,0,0,1-3.3,1c-3.3-2.1-10.8-6.7-26.1-14.9-23.3-12.5-24.9-16.4-24.9-40.5V234.3c0-14.8,1.1-24.4,4.4-31.6.3-.8,1.5-.3,1.3.5a30.23,30.23,0,0,0,4.3,26.3C288,264.9,322.6,302.4,307.1,338.9Z" transform="translate(-147.15)"/></svg>