<svg id="Layer_1" data-name="Layer 1" xmlns="http://www.w3.org/2000/svg" viewBox="0 0 134.05 1357.7"><defs><style>.cls-1{fill:#f43e31;}</style></defs><title>pill100</title><path class="cls-1" d="M71.28,120.21c-1.57,0-2.83,12.86-2.83,29.07V1240h5.66V149.28C74.11,133.07,72.81,120.21,71.28,120.21Z" transform="translate(-35.95 -0.1)"/><path class="cls-1" d="M115.62,38.17c4.35-.23,8.11-2.62,11.92-4.72.38-.17.7-.41,1.08-.58H108.71C108.93,36.48,112.58,38.35,115.62,38.17Z" transform="translate(-35.95 -0.1)"/><path class="cls-1" d="M90.38,38.17c3.05.18,6.64-1.69,6.91-5.24H77.38c.38.17.7.4,1.08.58C82.27,35.55,86,37.94,90.38,38.17Z" transform="translate(-35.95 -0.1)"/><polygon class="cls-1" points="118.9 16.62 15.21 16.62 17.06 26.65 117 26.65 118.9 16.62"/><path class="cls-1" d="M86.84,120.21c-1.58,0-2.83,12.86-2.83,29.07V1240h5.66V149.28C89.67,133.07,88.42,120.21,86.84,120.21Z" transform="translate(-35.95 -0.1)"/><path class="cls-1" d="M119.16,120.21c-1.58,0-2.83,12.86-2.83,29.07V1240H122V149.28C122,133.07,120.74,120.21,119.16,120.21Z" transform="translate(-35.95 -0.1)"/><path class="cls-1" d="M103,120.21c-1.74,0-3.16,14.54-3.16,32.43V1240h6.32V152.64C106.16,134.75,104.74,120.21,103,120.21Z" transform="translate(-35.95 -0.1)"/><rect class="cls-1" x="8.52" width="117.13" height="10.38"/><path class="cls-1" d="M134.72,120.21c-1.58,0-2.83,12.86-2.83,29.07V1240h5.66V149.28C137.55,133.07,136.29,120.21,134.72,120.21Z" transform="translate(-35.95 -0.1)"/><path class="cls-1" d="M65.57,116.36A8.28,8.28,0,0,1,71.28,114a8.61,8.61,0,0,1,7.78,5.37,8.34,8.34,0,0,1,15.73.4,8.73,8.73,0,0,1,16.43,0,8.33,8.33,0,0,1,15.72-.4,8.61,8.61,0,0,1,7.78-5.37,8.28,8.28,0,0,1,5.71,2.33V105.81H65.57Z" transform="translate(-35.95 -0.1)"/><path class="cls-1" d="M133.85,37.77c-6.42,3.14-12.46,7.69-19.86,7.11a12.68,12.68,0,0,1-11-8.57,12.59,12.59,0,0,1-11,8.57c-7.4.58-13.44-4-19.86-7.11-11.64-5.66-26.27-3.85-33.29,8.51C32.55,57.36,37,71.64,47.62,77.36c5.11,2.74,11.53,2.27,16.54-.35,5.38-2.8,8.7-8.05,9.79-14.29A15.79,15.79,0,0,0,61.65,44.3c-7.78-1.58-14.2,5.89-14,13.82a10.81,10.81,0,0,0,7,9.56c4.24,1.57,8.43-.53,10.55-4.61,2.28-4.43-.92-9.33-4.9-10.73a5,5,0,0,0-6.36,3.21,3.1,3.1,0,0,0,5.38,2.91c.28-.4.82.12.6.53-2.06,4.2-7,2.45-8.27-1.4-2-5.89,4.36-10.2,9.09-9.5,5.49.81,9.36,6.35,9.46,12.07.11,6-4.4,11-9.46,12.77-5.5,1.92-11.86-1.17-15.18-5.89s-3.75-10.62-2.12-16.1C47.13,38.7,60,35.14,69.92,41.15c10.72,6.47,12.3,21.63,6.26,32.24a23.31,23.31,0,0,1-10.77,9.74H83.09a29.34,29.34,0,0,0,6.25-18,23.84,23.84,0,0,0-2.23-10.09c-1.41-3-3.86-4.89-5.6-7.58a.19.19,0,0,1,.22-.29c3.1.7,5.93,4.32,7.78,6.82a25.64,25.64,0,0,1,4.62,11.14,23.9,23.9,0,0,1-4.68,17.9h27a23.94,23.94,0,0,1-4.68-17.9A25.66,25.66,0,0,1,116.44,54c1.85-2.56,4.68-6.12,7.78-6.82a.19.19,0,0,1,.22.29c-1.75,2.69-4.19,4.55-5.61,7.58a23.64,23.64,0,0,0-2.23,10.09,29.35,29.35,0,0,0,6.26,18h17.68a23.5,23.5,0,0,1-10.77-9.74c-6-10.61-4.41-25.77,6.25-32.24,10-6,22.8-2.45,26.5,9.79,1.63,5.43,1.19,11.43-2.12,16.1s-9.69,7.81-15.18,5.89c-5-1.75-9.58-6.77-9.47-12.77.11-5.72,4-11.26,9.47-12.07,4.73-.7,11.1,3.61,9.08,9.5-1.3,3.85-6.2,5.6-8.27,1.4-.21-.41.33-.87.6-.53A3.11,3.11,0,0,0,152,55.55a5.13,5.13,0,0,0-6.37-3.21c-4,1.4-7.18,6.3-4.89,10.73,2.06,4.08,6.31,6.24,10.55,4.61a10.82,10.82,0,0,0,7-9.56c.22-8-6.2-15.4-14-13.82A15.78,15.78,0,0,0,132,62.72c1.09,6.18,4.4,11.49,9.79,14.29,5.06,2.62,11.42,3,16.54.35,10.66-5.66,15.07-20,8.76-31.08C160.12,33.92,145.49,32.11,133.85,37.77Z" transform="translate(-35.95 -0.1)"/><polygon class="cls-1" points="23.59 99.59 23.86 99.59 110.25 99.59 110.52 99.59 110.52 89.15 23.59 89.15 23.59 99.59"/><path class="cls-1" d="M90.32,1319.73c-4.35.23-8.1,2.62-11.91,4.72-.38.18-.71.41-1.09.59H91.39c3.22,0,3.63-4.75.45-5.23A7.08,7.08,0,0,0,90.32,1319.73Z" transform="translate(-35.95 -0.1)"/><path class="cls-1" d="M115.57,1319.73c-.22,0-.44,0-.66,0-3.37.13-3.15,5.26.21,5.26h13.45c-.38-.18-.71-.41-1.09-.59C123.67,1322.35,119.92,1320,115.57,1319.73Z" transform="translate(-35.95 -0.1)"/><path class="cls-1" d="M54.28,1341.19h97.35a2.63,2.63,0,0,0,2.59-3.11l-.88-4.77a2.63,2.63,0,0,0-2.59-2.15H55.18a2.63,2.63,0,0,0-2.58,2.14l-.91,4.76A2.64,2.64,0,0,0,54.28,1341.19Z" transform="translate(-35.95 -0.1)"/><rect class="cls-1" x="8.41" y="1347.33" width="117.13" height="10.38" rx="2.63"/><path class="cls-1" d="M140.38,1246a2.64,2.64,0,0,0-3.43-2.5,7.93,7.93,0,0,1-2.29.33,8.24,8.24,0,0,1-5.87-2.52,2.66,2.66,0,0,0-3.82,0,8.12,8.12,0,0,1-11.89-.14,2.66,2.66,0,0,0-3.9,0,8.65,8.65,0,0,1-6.23,2.69,8.53,8.53,0,0,1-6.22-2.71,2.68,2.68,0,0,0-3.91,0,8.12,8.12,0,0,1-11.9.15,2.66,2.66,0,0,0-3.82,0,8.24,8.24,0,0,1-5.87,2.52,7.93,7.93,0,0,1-2.29-.33,2.64,2.64,0,0,0-3.42,2.5v3.42a2.62,2.62,0,0,0,2.63,2.63h69.59a2.63,2.63,0,0,0,2.64-2.63Z" transform="translate(-35.95 -0.1)"/><path class="cls-1" d="M72.1,1320.14c6.42-3.15,12.46-7.7,19.86-7.12a12.82,12.82,0,0,1,9,4.79,2.6,2.6,0,0,0,4.06,0,12.65,12.65,0,0,1,9-4.79c7.39-.58,13.43,4,19.85,7.12,11.64,5.65,26.28,3.85,33.3-8.52,6.31-11.07,1.9-25.36-8.76-31.07-5.12-2.74-11.54-2.28-16.54.35-5.39,2.8-8.7,8-9.79,14.28a15.8,15.8,0,0,0,12.29,18.43c7.78,1.57,14.2-5.89,14-13.82a10.79,10.79,0,0,0-7-9.56c-4.24-1.58-8.43.52-10.55,4.6-2.29,4.43.92,9.33,4.89,10.73a5,5,0,0,0,6.37-3.21c1-3.49-3.38-5.65-5.39-2.91-.27.41-.81-.12-.6-.53,2.07-4.19,7-2.45,8.27,1.4,2,5.89-4.35,10.21-9.08,9.51-5.5-.82-9.36-6.36-9.47-12.07-.11-6,4.41-11,9.47-12.77,5.49-1.93,11.86,1.16,15.18,5.89s3.75,10.61,2.12,16.09c-3.7,12.24-16.6,15.8-26.5,9.8-10.71-6.48-12.29-21.64-6.25-32.25a22.63,22.63,0,0,1,4-5.19,2.63,2.63,0,0,0-1.8-4.55h-7.81a2.6,2.6,0,0,0-2.12,1.08,29.17,29.17,0,0,0-5.47,16.88,23.84,23.84,0,0,0,2.23,10.09c1.42,3,3.86,4.9,5.61,7.58a.19.19,0,0,1-.22.29c-3.1-.7-5.93-4.31-7.78-6.82a25.66,25.66,0,0,1-4.63-11.14,24.06,24.06,0,0,1,2.27-14,2.64,2.64,0,0,0-2.33-3.85H94.2a2.64,2.64,0,0,0-2.33,3.85,24.14,24.14,0,0,1,2.26,14,25.64,25.64,0,0,1-4.62,11.14c-1.85,2.57-4.68,6.12-7.78,6.82a.19.19,0,0,1-.22-.29c1.74-2.68,4.19-4.55,5.6-7.58a23.64,23.64,0,0,0,2.23-10.09,29.16,29.16,0,0,0-5.46-16.88,2.62,2.62,0,0,0-2.13-1.08H73.92a2.63,2.63,0,0,0-1.8,4.54,23.91,23.91,0,0,1,4.06,5.2c6,10.61,4.41,25.77-6.26,32.25-10,6-22.79,2.44-26.49-9.8-1.63-5.42-1.2-11.43,2.12-16.09s9.68-7.82,15.18-5.89c5,1.75,9.57,6.76,9.46,12.77-.1,5.71-4,11.25-9.46,12.07-4.73.7-11.1-3.62-9.09-9.51,1.31-3.85,6.21-5.59,8.27-1.4.22.41-.32.88-.6.53a3.1,3.1,0,0,0-5.38,2.91,5.1,5.1,0,0,0,6.36,3.21c4-1.4,7.18-6.3,4.9-10.73-2.07-4.08-6.31-6.24-10.55-4.6a10.83,10.83,0,0,0-7,9.56c-.22,8,6.2,15.39,14,13.82A15.8,15.8,0,0,0,74,1295.18c-1.09-6.18-4.41-11.48-9.79-14.28-5.06-2.63-11.43-3-16.54-.35-10.67,5.65-15.07,20-8.76,31.07C45.82,1324,60.46,1325.79,72.1,1320.14Z" transform="translate(-35.95 -0.1)"/><path class="cls-1" d="M146.41,1258.22H59.48v7.8a2.63,2.63,0,0,0,2.63,2.63h81.67a2.63,2.63,0,0,0,2.63-2.63Z" transform="translate(-35.95 -0.1)"/></svg>