<svg id="Layer_1" data-name="Layer 1" xmlns="http://www.w3.org/2000/svg" viewBox="0 0 247.22 606"><defs><style>.cls-1,.cls-2{fill:#868686;}.cls-1{fill-opacity:0.12;}.cls-2{fill-opacity:0.16;}</style></defs><title>pill2</title><path class="cls-1" d="M239.4,48.94c2.69,0,4.82-.48,4.82-1l-.14-33.64-9.64.15.14,33.65C234.58,48.61,236.71,49,239.4,48.94Z" transform="translate(-56.78 0)"/><path class="cls-1" d="M157.08,172.28c-8.14.45-15.13,4.49-22.22,8-.71.3-1.32.69-2,1l37.24-.29C169.51,175,162.77,171.94,157.08,172.28Z" transform="translate(-56.78 0)"/><path class="cls-1" d="M204,171.91c-5.68-.25-12.35,3-12.81,9l37.23-.29c-.71-.29-1.32-.68-2-1C219.24,176.22,212.2,172.24,204,171.91Z" transform="translate(-56.78 0)"/><path class="cls-1" d="M87.13,210.79l187.42-1.45-3.48-17.7L90.44,193Z" transform="translate(-56.78 0)"/><path class="cls-1" d="M210.48,49.38c2.69,0,4.82-.47,4.82-1l-.13-33.64-9.64.14.13,33.65C205.66,49.05,207.79,49.42,210.48,49.38Z" transform="translate(-56.78 0)"/><path class="cls-1" d="M151,50.29c2.39,0,4.28-.46,4.28-1l-.14-33.65-8.56.14.13,33.64C146.75,50,148.73,50.33,151,50.29Z" transform="translate(-56.78 0)"/><path class="cls-1" d="M181.06,49.83c2.35,0,4.25-.51,4.25-1.07l-.13-33.53-8.57.13.13,33.53C176.81,49.45,178.72,49.87,181.06,49.83Z" transform="translate(-56.78 0)"/><path class="cls-1" d="M73.72,241.29l214.72-1.67-.15-19L73.57,222.29Z" transform="translate(-56.78 0)"/><path class="cls-1" d="M121.58,50.74c2.69,0,4.82-.47,4.82-1l-.13-33.64-9.64.15.13,33.64C116.76,50.42,119,50.78,121.58,50.74Z" transform="translate(-56.78 0)"/><path class="cls-1" d="M248.58,63.66A17.27,17.27,0,0,1,238.31,67c-6.18,0-11.6-3-14.08-7.42-2.42,4.44-7.79,7.59-14,7.63-6.47,0-12.09-3.26-14.38-8-2.42,4.76-8.08,8.16-14.75,8.21s-12.29-3.26-14.87-8c-2.22,4.76-7.79,8.16-14.26,8.21-6.18,0-11.6-3-14.08-7.42-2.42,4.43-7.79,7.59-14,7.63a17.31,17.31,0,0,1-10.32-3.19l.11,14.81,135-1Z" transform="translate(-56.78 0)"/><path class="cls-1" d="M123.56,172.09c11.78-5.69,22.85-13.86,36.49-12.93,9.12.66,17.39,6.5,20.36,15.08a23.07,23.07,0,0,1,20.13-15.39c13.63-1.14,24.82,7,36.69,12.36,21.53,10,48.57,6.46,61.33-15.5,11.47-19.78,3.16-45.1-16.57-55.1-9.46-4.8-21.28-3.88-30.47.85-9.88,5.05-15.92,14.43-17.84,25.53a28.13,28.13,0,0,0,22.91,32.57c14.25,2.58,26-10.67,25.47-24.86-.27-7.88-6-14.36-13-16.9-7.84-2.73-15.53,1.06-19.38,8.34-4.15,7.91,1.83,16.56,9.17,19,4.52,1.52,10.32-.9,11.68-5.78,1.86-6.24-6.29-10-10-5.11-.5.73-1.51-.19-1.11-.92,3.75-7.49,12.9-4.45,15.26,2.37,3.68,10.43-7.88,18.19-16.61,17-10-1.38-17.23-11.06-17.61-21.32-.28-10.67,8-19.64,17.26-22.82,10.1-3.5,21.87,1.9,28,10.24s7.06,18.81,4.13,28.57c-6.65,21.81-30.35,28.32-48.68,17.79-19.83-11.35-22.95-38.27-12-57.21A42.4,42.4,0,0,1,249,90.5l-32.57.25c-7.15,9.18-11.38,20.09-11.28,32a41,41,0,0,0,4.25,17.9c2.64,5.37,7.18,8.65,10.42,13.39a.34.34,0,0,1-.39.52c-5.83-1.2-11.09-7.48-14.53-12a44.47,44.47,0,0,1-8.67-19.73A41.35,41.35,0,0,1,204.63,91L155,91.33a41.44,41.44,0,0,1,8.87,31.74,44.56,44.56,0,0,1-8.37,19.86c-3.37,4.59-8.53,10.95-14.24,12.24a.34.34,0,0,1-.4-.52c3.17-4.79,7.65-8.14,10.22-13.55a40.81,40.81,0,0,0,4-18,51.08,51.08,0,0,0-11.78-31.82l-32.57.25a43,43,0,0,1,20,17.15c11.17,18.77,8.47,45.74-11.09,57.39-18.26,10.81-42,4.68-48.95-17-3.08-9.61-2.36-20.29,3.69-28.63s17.74-14,27.89-10.68c9.24,3,17.73,11.88,17.61,22.56-.12,10.15-7.16,20-17.27,21.58-8.71,1.31-20.5-6.26-16.87-16.76,2.35-6.86,11.35-10,15.21-2.6.41.72-.59,1.56-1.09.94-3.75-4.74-11.84-1-9.88,5.25,1.54,4.76,7.27,7.1,11.77,5.61,7.3-2.54,13.14-11.29,8.87-19.13-3.86-7.23-11.71-11-19.51-8-6.9,2.54-12.46,9.22-12.7,17.1-.29,14.19,11.64,27.26,25.95,24.35a28.12,28.12,0,0,0,22.4-32.92c-2.09-11-8.27-20.34-18.24-25.24-9.35-4.59-21.09-5.23-30.47-.39-19.57,10.21-27.49,35.76-15.71,55.36C75.2,179.3,102.29,182.41,123.56,172.09Z" transform="translate(-56.78 0)"/><path class="cls-2" d="M120.73,557.17c-2.69,0-4.82.36-4.82.8V587.7h9.64V558C125.55,557.53,123.42,557.17,120.73,557.17Z" transform="translate(-56.78 0)"/><path class="cls-2" d="M204,435.86c8.14-.39,15.16-4.37,22.28-7.87.71-.29,1.32-.68,2-1H191.05C191.56,433,198.27,436.16,204,435.86Z" transform="translate(-56.78 0)"/><path class="cls-2" d="M157.06,435.86c5.69.3,12.38-2.85,12.89-8.84H132.71c.71.29,1.32.69,2,1C141.85,431.44,148.85,435.47,157.06,435.86Z" transform="translate(-56.78 0)"/><path class="cls-2" d="M274.21,397.89H86.79l3.34,17.73H270.77Z" transform="translate(-56.78 0)"/><path class="cls-2" d="M149.65,557.17c-2.69,0-4.82.36-4.82.8V587.7h9.64V558C154.47,557.53,152.34,557.17,149.65,557.17Z" transform="translate(-56.78 0)"/><path class="cls-2" d="M209.1,557.17c-2.39,0-4.29.36-4.29.8V587.7h8.57V558C213.38,557.53,211.4,557.17,209.1,557.17Z" transform="translate(-56.78 0)"/><path class="cls-2" d="M179.07,557.17c-2.35,0-4.25.4-4.25.89V587.7h8.57V558.06C183.32,557.57,181.41,557.17,179.07,557.17Z" transform="translate(-56.78 0)"/><path class="cls-2" d="M287.86,367.5H73.14v19H287.86Z" transform="translate(-56.78 0)"/><path class="cls-2" d="M238.55,557.17c-2.69,0-4.82.36-4.82.8V587.7h9.64V558C243.37,557.53,241.15,557.17,238.55,557.17Z" transform="translate(-56.78 0)"/><path class="cls-2" d="M111.63,543.76a17.3,17.3,0,0,1,10.29-3.27c6.18,0,11.58,3.11,14,7.53,2.45-4.42,7.85-7.53,14-7.53,6.47,0,12.06,3.36,14.32,8.1,2.45-4.74,8.14-8.1,14.81-8.1s12.26,3.36,14.81,8.1c2.25-4.74,7.84-8.1,14.32-8.1,6.18,0,11.57,3.11,14,7.53,2.45-4.42,7.85-7.53,14-7.53a17.35,17.35,0,0,1,10.3,3.27V529h-135Z" transform="translate(-56.78 0)"/><path class="cls-2" d="M237.49,436.31c-11.83,5.6-23,13.68-36.59,12.64-9.12-.72-17.34-6.63-20.25-15.23A23.06,23.06,0,0,1,160.4,449c-13.63,1-24.76-7.15-36.59-12.64-21.45-10.15-48.51-6.84-61.44,15C50.74,471,58.86,496.41,78.51,506.57c9.42,4.87,21.25,4,30.47-.63,9.92-5,16-14.3,18-25.38a28.13,28.13,0,0,0-22.65-32.75c-14.24-2.69-26.06,10.47-25.66,24.66.2,7.88,5.91,14.41,12.83,17,7.82,2.8,15.53-.93,19.44-8.19,4.21-7.87-1.7-16.58-9-19.06-4.51-1.56-10.32.83-11.73,5.7-1.9,6.21,6.22,10.05,9.93,5.18.5-.73,1.5.2,1.1.93-3.81,7.46-12.93,4.35-15.24-2.49-3.61-10.46,8-18.13,16.74-16.89,10,1.45,17.14,11.19,17.45,21.45.2,10.67-8.12,19.59-17.45,22.69-10.12,3.42-21.85-2.07-28-10.46s-6.92-18.86-3.91-28.6c6.81-21.76,30.57-28.08,48.81-17.41,19.75,11.5,22.66,38.44,11.53,57.3a42.44,42.44,0,0,1-19.85,17.31H144A51,51,0,0,0,155.49,485a41.05,41.05,0,0,0-4.11-17.92c-2.61-5.39-7.12-8.71-10.32-13.47a.34.34,0,0,1,.4-.52c5.81,1.24,11,7.56,14.43,12.12A44.6,44.6,0,0,1,164.41,485a41.36,41.36,0,0,1-8.62,31.81h49.62A41.4,41.4,0,0,1,196.79,485a44.6,44.6,0,0,1,8.52-19.79c3.41-4.56,8.62-10.88,14.33-12.12a.35.35,0,0,1,.41.52c-3.21,4.76-7.72,8.08-10.33,13.47A40.73,40.73,0,0,0,205.61,485a51,51,0,0,0,11.53,31.92h32.58a42.92,42.92,0,0,1-19.85-17.31c-11-18.86-8.12-45.8,11.53-57.3,18.34-10.67,42-4.35,48.81,17.41,3,9.64,2.21,20.31-3.91,28.6s-17.84,13.88-28,10.46c-9.23-3.1-17.65-12-17.44-22.69.2-10.15,7.31-20,17.44-21.45,8.72-1.24,20.45,6.43,16.74,16.89-2.41,6.84-11.43,9.95-15.24,2.49-.4-.73.6-1.56,1.1-.93,3.71,4.76,11.83,1,9.93-5.18-1.51-4.77-7.22-7.15-11.73-5.7-7.32,2.48-13.23,11.19-9,19.06,3.81,7.26,11.63,11.09,19.44,8.19,6.92-2.49,12.53-9.12,12.83-17,.41-14.19-11.42-27.35-25.76-24.55A28.12,28.12,0,0,0,234,480.66c2,11,8.12,20.41,18,25.39,9.32,4.66,21,5.39,30.47.62,19.65-10.05,27.77-35.54,16.14-55.23C285.9,429.47,258.84,426.16,237.49,436.31Z" transform="translate(-56.78 0)"/><rect class="cls-1" x="60.22" width="127" height="10"/><rect class="cls-1" x="59.22" y="596" width="127" height="10"/></svg>