<svg id="Layer_1" data-name="Layer 1" xmlns="http://www.w3.org/2000/svg" viewBox="0 0 95.5 542.5"><defs><style>.cls-1{fill:#e53616;opacity:0.1;}</style></defs><title>pill</title><path class="cls-1" d="M37.32,85.34c-1.06,0-1.91,4.32-1.91,9.7V458.45h3.82V95C39.23,89.66,38.39,85.34,37.32,85.34Z" transform="translate(-12.5 -0.5)"/><path class="cls-1" d="M69.23,27.42c3.1-.16,5.77-1.85,8.48-3.33.27-.13.5-.29.77-.42H64.31C64.5,26.23,67.06,27.55,69.23,27.42Z" transform="translate(-12.5 -0.5)"/><path class="cls-1" d="M51.29,27.43c2.17.12,4.73-1.2,4.92-3.72H42c.27.13.5.29.77.42C45.48,25.57,48.16,27.26,51.29,27.43Z" transform="translate(-12.5 -0.5)"/><path class="cls-1" d="M97.19,12.21H23.37l1.31,7.09H95.84Z" transform="translate(-12.5 -0.5)"/><path class="cls-1" d="M48.78,85.34c-1.07,0-1.91,4.32-1.91,9.7V458.45h3.82V95C50.69,89.66,49.84,85.34,48.78,85.34Z" transform="translate(-12.5 -0.5)"/><path class="cls-1" d="M71.69,85.34c-1.06,0-1.91,4.32-1.91,9.7V458.45H73.6V95C73.6,89.66,72.72,85.34,71.69,85.34Z" transform="translate(-12.5 -0.5)"/><path class="cls-1" d="M60.22,85.34c-1,0-1.89,4.85-1.89,10.88V458.45h3.82V96.16C62.11,90.19,61.26,85.34,60.22,85.34Z" transform="translate(-12.5 -0.5)"/><path class="cls-1" d="M102,.5H18.56V7.84H102Z" transform="translate(-12.5 -0.5)"/><path class="cls-1" d="M83.15,85.34c-1.07,0-1.91,4.32-1.91,9.7V458.45h3.82V95C85.06,89.66,84.18,85.34,83.15,85.34Z" transform="translate(-12.5 -0.5)"/><path class="cls-1" d="M33.59,82.72a5.91,5.91,0,0,1,4.07-1.65,6.14,6.14,0,0,1,5.54,3.79,5.95,5.95,0,0,1,11.19.29,6.37,6.37,0,0,1,5.85-4.08,6.45,6.45,0,0,1,5.85,4.08,5.95,5.95,0,0,1,11.19-.29,6.14,6.14,0,0,1,5.54-3.79,5.9,5.9,0,0,1,4.07,1.65V75.26H33.59Z" transform="translate(-12.5 -0.5)"/><path class="cls-1" d="M82.24,27.14c-4.57,2.22-8.87,5.44-14.14,5a9,9,0,0,1-7.82-6.06,9,9,0,0,1-7.82,6.06c-5.27.41-9.57-2.85-14.14-5-8.29-4-18.75-2.72-23.75,6a16.11,16.11,0,0,0,6.24,22,12.92,12.92,0,0,0,11.78-.24,13.63,13.63,0,0,0,7-10.11,11.18,11.18,0,0,0-8.76-13c-5.5-1.07-10.07,4.17-9.91,9.82a7.63,7.63,0,0,0,5,6.76c3,1.11,6-.37,7.51-3.26,1.63-3.13-.66-6.6-3.49-7.58a3.55,3.55,0,0,0-4.53,2.26,2.21,2.21,0,0,0,3.84,2.06c.19-.28.58.09.42.38-1.47,3-5,1.73-5.88-1-1.4-4.17,3.09-7.22,6.46-6.73,3.88.58,6.63,4.46,6.74,8.54.08,4.25-3.13,7.79-6.74,9-3.91,1.36-8.44-.82-10.8-4.16a12.93,12.93,0,0,1-1.51-11.38c2.63-8.66,11.81-11.18,18.86-6.93,7.63,4.58,8.75,15.3,4.45,22.8a16.6,16.6,0,0,1-7.67,6.89H46.1a20.69,20.69,0,0,0,4.46-12.7A16.73,16.73,0,0,0,49,39.38c-1-2.14-2.75-3.46-4-5.36a.13.13,0,0,1,.15-.2c2.25.49,4.27,3,5.58,4.82A17.91,17.91,0,0,1,54,46.52a16.81,16.81,0,0,1-3.33,12.66H69.85a16.85,16.85,0,0,1-3.33-12.66,17.91,17.91,0,0,1,3.29-7.88c1.32-1.81,3.33-4.33,5.54-4.82a.13.13,0,0,1,.15.2c-1.24,1.9-3,3.22-4,5.36a16.74,16.74,0,0,0-1.59,7.14,20.69,20.69,0,0,0,4.46,12.7H87a16.79,16.79,0,0,1-7.67-6.89c-4.26-7.5-3.14-18.22,4.45-22.8,7.09-4.25,16.23-1.73,18.87,6.93a13,13,0,0,1-1.51,11.38C98.7,51.18,94.21,53.36,90.3,52c-3.57-1.24-6.82-4.78-6.74-9,.08-4,2.83-8,6.74-8.54,3.37-.49,7.9,2.56,6.47,6.73-.93,2.72-4.42,4-5.89,1-.16-.29.23-.62.43-.38a2.21,2.21,0,0,0,3.83-2.06,3.64,3.64,0,0,0-4.53-2.26c-2.83,1-5.11,4.45-3.49,7.58,1.47,2.89,4.5,4.41,7.52,3.26a7.65,7.65,0,0,0,5-6.76c.16-5.65-4.41-10.89-10-9.78a11.17,11.17,0,0,0-8.75,13,13.65,13.65,0,0,0,7,10.11,13,13,0,0,0,11.77.24,16.09,16.09,0,0,0,6.24-22C101,24.42,90.49,23.1,82.24,27.14Z" transform="translate(-12.5 -0.5)"/><path class="cls-1" d="M29.33,70.89h61.9V63.55H29.33Z" transform="translate(-12.5 -0.5)"/><path class="cls-1" d="M51.19,516.23c-3.18.16-5.93,1.74-8.72,3.13-.28.12-.52.27-.8.39H56.25C56.05,517.35,53.42,516.12,51.19,516.23Z" transform="translate(-12.5 -0.5)"/><path class="cls-1" d="M69.06,516.23c-2.11-.11-4.6,1.14-4.79,3.52H78.12c-.27-.12-.49-.27-.76-.39C74.72,518,72.12,516.39,69.06,516.23Z" transform="translate(-12.5 -0.5)"/><path class="cls-1" d="M23.45,531H97.07l-1.32-7H24.81Z" transform="translate(-12.5 -0.5)"/><path class="cls-1" d="M18.35,543h83.82v-7H18.35Z" transform="translate(-12.5 -0.5)"/><path class="cls-1" d="M86.86,460.88a5.86,5.86,0,0,1-4.06,1.64,6.13,6.13,0,0,1-5.53-3.78,5.94,5.94,0,0,1-11.17-.29,6.35,6.35,0,0,1-5.84,4.07,6.43,6.43,0,0,1-5.84-4.07,5.94,5.94,0,0,1-11.17.29,6.13,6.13,0,0,1-5.53,3.78,5.86,5.86,0,0,1-4.06-1.64v7.44h53.2Z" transform="translate(-12.5 -0.5)"/><path class="cls-1" d="M38.23,516.18c4.57-2.19,8.88-5.37,14.15-5a9,9,0,0,1,7.82,6,8.93,8.93,0,0,1,7.83-6c5.27-.41,9.57,2.81,14.14,5,8.29,4,18.76,2.69,23.76-5.9a15.8,15.8,0,0,0-6.24-21.69,13.07,13.07,0,0,0-11.78.25,13.42,13.42,0,0,0-7,10,11,11,0,0,0,8.76,12.86c5.5,1.05,10.07-4.11,9.92-9.69a7.56,7.56,0,0,0-5-6.67c-3-1.1-6,.36-7.52,3.21-1.63,3.09.66,6.51,3.49,7.49a3.57,3.57,0,0,0,4.53-2.24,2.2,2.2,0,0,0-3.83-2c-.2.28-.58-.08-.43-.37,1.47-2.93,5-1.71,5.89,1,1.4,4.11-3.1,7.12-6.47,6.63-3.88-.57-6.63-4.39-6.74-8.42-.08-4.2,3.14-7.69,6.74-8.92,3.91-1.34,8.45.82,10.81,4.11A12.7,12.7,0,0,1,102.63,507c-2.63,8.54-11.82,11-18.87,6.83-7.63-4.51-8.76-15.09-4.45-22.5a16.51,16.51,0,0,1,7.67-6.8H74.38a20.25,20.25,0,0,0-4.45,12.54,16.32,16.32,0,0,0,1.59,7c1,2.11,2.75,3.41,4,5.29a.13.13,0,0,1-.16.2c-2.24-.49-4.26-3-5.58-4.76a17.77,17.77,0,0,1-3.29-7.77,16.47,16.47,0,0,1,3.33-12.5H50.63A16.47,16.47,0,0,1,54,497.06a17.54,17.54,0,0,1-3.29,7.77c-1.32,1.79-3.33,4.27-5.54,4.76a.13.13,0,0,1-.16-.2c1.24-1.88,3-3.18,4-5.29a16.33,16.33,0,0,0,1.58-7,20.25,20.25,0,0,0-4.45-12.54H33.5a16.73,16.73,0,0,1,7.68,6.8c4.26,7.41,3.14,18-4.46,22.5C29.63,518,20.49,515.53,17.85,507a12.71,12.71,0,0,1,1.51-11.24c2.4-3.29,6.9-5.45,10.81-4.11,3.57,1.23,6.82,4.72,6.74,8.92-.07,4-2.82,7.85-6.74,8.42-3.37.49-7.9-2.52-6.47-6.63.93-2.69,4.42-3.91,5.89-1,.16.29-.23.61-.43.37a2.2,2.2,0,0,0-3.83,2A3.66,3.66,0,0,0,29.86,506c2.83-1,5.12-4.4,3.49-7.49a6,6,0,0,0-7.52-3.21,7.57,7.57,0,0,0-5,6.67c-.15,5.58,4.42,10.74,10,9.65a11,11,0,0,0,8.76-12.86,13.49,13.49,0,0,0-7-10,13.17,13.17,0,0,0-11.78-.25,15.78,15.78,0,0,0-6.23,21.69C19.52,518.87,30,520.17,38.23,516.18Z" transform="translate(-12.5 -0.5)"/><path class="cls-1" d="M91.24,472.55h-62v7.75h62Z" transform="translate(-12.5 -0.5)"/></svg>