<?xml version="1.0" encoding="utf-8"?>
<!-- Generator: Adobe Illustrator 23.0.3, SVG Export Plug-In . SVG Version: 6.00 Build 0)  -->
<svg version="1.1" id="Layer_1" xmlns="http://www.w3.org/2000/svg" xmlns:xlink="http://www.w3.org/1999/xlink" x="0px" y="0px"
	 viewBox="0 0 134.1 1357.7" style="enable-background:new 0 0 134.1 1357.7;" xml:space="preserve">
<style type="text/css">
	.st0{opacity:4.000000e-02;fill:#F43E31;enable-background:new    ;}
</style>
<title>pill</title>
<path class="st0" d="M35.3,120.1c-1.6,0-2.8,12.9-2.8,29.1v1090.7h5.7V149.2C38.2,133,36.9,120.1,35.3,120.1z"/>
<path class="st0" d="M79.7,38.1c4.4-0.2,8.1-2.6,11.9-4.7c0.4-0.2,0.7-0.4,1.1-0.6H72.8C73,36.4,76.6,38.3,79.7,38.1z"/>
<path class="st0" d="M54.4,38.1c3.1,0.2,6.6-1.7,6.9-5.2H41.4c0.4,0.2,0.7,0.4,1.1,0.6C46.3,35.5,50,37.8,54.4,38.1z"/>
<polygon class="st0" points="118.9,16.6 15.2,16.6 17.1,26.7 117,26.7 "/>
<path class="st0" d="M50.9,120.1c-1.6,0-2.8,12.9-2.8,29.1v1090.7h5.7V149.2C53.7,133,52.5,120.1,50.9,120.1z"/>
<path class="st0" d="M83.2,120.1c-1.6,0-2.8,12.9-2.8,29.1v1090.7h5.7V149.2C86.1,133,84.8,120.1,83.2,120.1z"/>
<path class="st0" d="M67.1,120.1c-1.7,0-3.2,14.5-3.2,32.4v1087.4h6.3V152.5C70.2,134.7,68.8,120.1,67.1,120.1z"/>
<rect x="8.5" y="0" class="st0" width="117.1" height="10.4"/>
<path class="st0" d="M98.8,120.1c-1.6,0-2.8,12.9-2.8,29.1v1090.7h5.7V149.2C101.6,133,100.3,120.1,98.8,120.1z"/>
<path class="st0" d="M29.6,116.3c1.5-1.5,3.6-2.3,5.7-2.4c3.4,0.1,6.5,2.2,7.8,5.4c1.6-4.3,6.5-6.5,10.8-4.8c2.4,0.9,4.2,2.8,5,5.2
	c1.6-4.5,6.6-6.9,11.2-5.3c2.5,0.9,4.4,2.8,5.3,5.3c1.4-4.4,6.1-6.8,10.5-5.4c2.4,0.8,4.3,2.6,5.2,5c1.3-3.2,4.3-5.3,7.8-5.4
	c2.1,0,4.2,0.8,5.7,2.3v-10.5H29.6V116.3z"/>
<path class="st0" d="M97.9,37.7c-6.4,3.1-12.5,7.7-19.9,7.1c-5-0.4-9.4-3.8-11-8.6c-1.6,4.8-5.9,8.2-11,8.6
	c-7.4,0.6-13.4-4-19.9-7.1C24.5,32,9.9,33.8,2.9,46.2C-3.4,57.3,1,71.5,11.7,77.3c5.1,2.7,11.5,2.3,16.5-0.3
	c5.4-2.8,8.7-8.1,9.8-14.3c1.6-8.5-3.9-16.7-12.3-18.4c-7.8-1.6-14.2,5.9-14,13.8c0.2,4.3,3,8,7,9.6c4.2,1.6,8.4-0.5,10.6-4.6
	c2.3-4.4-0.9-9.3-4.9-10.7c-2.6-0.9-5.5,0.5-6.3,3.1c0,0,0,0,0,0.1c-0.6,1.6,0.3,3.4,1.9,3.9c1.3,0.4,2.6,0,3.5-1
	c0.3-0.4,0.8,0.1,0.6,0.5c-2.1,4.2-7,2.5-8.3-1.4c-2-5.9,4.4-10.2,9.1-9.5c5.5,0.8,9.4,6.3,9.5,12.1c0.1,6-4.4,11-9.5,12.8
	c-5.5,1.9-11.9-1.2-15.2-5.9S5.9,56.3,7.5,50.8C11.2,38.6,24,35,34,41.1c10.7,6.5,12.3,21.6,6.3,32.2C37.8,77.6,34,81,29.5,83h17.7
	c4-5.1,6.2-11.5,6.3-18c0-3.5-0.8-6.9-2.2-10.1c-1.4-3-3.9-4.9-5.6-7.6c-0.1-0.1,0-0.2,0-0.3c0.1,0,0.1,0,0.2,0
	c3.1,0.7,5.9,4.3,7.8,6.8c2.4,3.3,4,7.1,4.6,11.1c0.9,6.4-0.8,12.8-4.7,17.9h27c-3.9-5.1-5.6-11.5-4.7-17.9c0.6-4,2.3-7.8,4.7-11.1
	c1.8-2.6,4.7-6.1,7.8-6.8c0.1,0,0.2,0,0.2,0.1c0,0.1,0,0.1,0,0.2c-1.8,2.7-4.2,4.5-5.6,7.6c-1.5,3.2-2.2,6.6-2.2,10.1
	c0,6.5,2.2,12.9,6.3,18h17.7c-4.5-2-8.3-5.4-10.8-9.7c-6-10.6-4.4-25.8,6.3-32.2c10-6,22.8-2.5,26.5,9.8c1.6,5.4,1.2,11.4-2.1,16.1
	s-9.7,7.8-15.2,5.9c-5-1.8-9.6-6.8-9.5-12.8c0.1-5.7,4-11.3,9.5-12.1c4.7-0.7,11.1,3.6,9.1,9.5c-1.3,3.8-6.2,5.6-8.3,1.4
	c-0.2-0.4,0.3-0.9,0.6-0.5c1.1,1.3,3,1.5,4.4,0.4c1-0.8,1.4-2.1,1-3.4c-0.9-2.6-3.7-4-6.4-3.2c-4,1.4-7.2,6.3-4.9,10.7
	c2.1,4.1,6.3,6.2,10.6,4.6c4-1.5,6.8-5.3,7-9.6c0.2-8-6.2-15.4-14-13.8c-8.4,1.8-13.9,10-12.3,18.4c1.1,6.2,4.4,11.5,9.8,14.3
	c5.1,2.6,11.4,3,16.5,0.3c10.7-5.7,15.1-20,8.8-31.1C124.2,33.8,109.5,32,97.9,37.7z"/>
<polygon class="st0" points="23.6,99.6 23.9,99.6 110.3,99.6 110.5,99.6 110.5,89.2 23.6,89.2 "/>
<path class="st0" d="M54.4,1319.6c-4.3,0.2-8.1,2.6-11.9,4.7c-0.4,0.2-0.7,0.4-1.1,0.6h14.1c3.2,0,3.6-4.8,0.4-5.2
	C55.4,1319.6,54.9,1319.6,54.4,1319.6z"/>
<path class="st0" d="M79.6,1319.6c-0.2,0-0.4,0-0.7,0c-3.4,0.1-3.1,5.3,0.2,5.3h13.4c-0.4-0.2-0.7-0.4-1.1-0.6
	C87.7,1322.3,84,1319.9,79.6,1319.6z"/>
<path class="st0" d="M18.3,1341.1h97.4c1.5,0,2.6-1.2,2.6-2.6c0-0.2,0-0.3,0-0.5l-0.9-4.8c-0.2-1.2-1.3-2.2-2.6-2.2H19.2
	c-1.3,0-2.3,0.9-2.6,2.1l-0.9,4.8c-0.3,1.4,0.7,2.8,2.1,3.1C18,1341.1,18.2,1341.1,18.3,1341.1z"/>
<path class="st0" d="M11,1347.3h111.9c1.5,0,2.6,1.2,2.6,2.6v5.1c0,1.5-1.2,2.6-2.6,2.6H11c-1.5,0-2.6-1.2-2.6-2.6v-5.1
	C8.4,1348.5,9.6,1347.3,11,1347.3z"/>
<path class="st0" d="M104.4,1245.9c0-1.5-1.2-2.6-2.7-2.6c-0.3,0-0.5,0-0.8,0.1c-0.7,0.2-1.5,0.3-2.3,0.3c-2.2,0-4.3-0.9-5.9-2.5
	c-1-1.1-2.7-1.1-3.8-0.1c0,0,0,0-0.1,0.1c-3.1,3.2-8.2,3.4-11.5,0.3c-0.1-0.1-0.3-0.3-0.4-0.4c-1-1.1-2.7-1.1-3.8-0.1
	c0,0-0.1,0.1-0.1,0.1c-1.6,1.7-3.9,2.7-6.2,2.7c-2.4,0-4.6-1-6.2-2.7c-1-1.1-2.7-1.1-3.8-0.1c0,0-0.1,0.1-0.1,0.1
	c-3,3.3-8.1,3.6-11.5,0.6c-0.1-0.1-0.3-0.3-0.4-0.4c-1-1.1-2.7-1.1-3.8-0.1c0,0,0,0-0.1,0.1c-1.5,1.6-3.7,2.5-5.9,2.5
	c-0.8,0-1.5-0.1-2.3-0.3c-1.4-0.4-2.9,0.3-3.3,1.7c-0.1,0.2-0.1,0.5-0.1,0.8v3.4c0,1.4,1.2,2.6,2.6,2.6c0,0,0,0,0,0h69.6
	c1.5,0,2.6-1.2,2.6-2.6c0,0,0,0,0,0V1245.9z"/>
<path class="st0" d="M36.1,1320c6.4-3.2,12.5-7.7,19.9-7.1c3.5,0.3,6.8,2,9,4.8c0.9,1.1,2.5,1.3,3.7,0.4c0.1-0.1,0.3-0.3,0.4-0.4
	c2.2-2.8,5.5-4.5,9-4.8c7.4-0.6,13.4,4,19.9,7.1c11.6,5.7,26.3,3.8,33.3-8.5c6.3-11.1,1.9-25.4-8.8-31.1c-5.1-2.7-11.5-2.3-16.5,0.3
	c-5.4,2.8-8.7,8-9.8,14.3c-1.6,8.5,3.9,16.7,12.3,18.4c7.8,1.6,14.2-5.9,14-13.8c-0.2-4.3-3-8.1-7-9.6c-4.2-1.6-8.4,0.5-10.6,4.6
	c-2.3,4.4,0.9,9.3,4.9,10.7c2.6,0.9,5.5-0.5,6.3-3.1c0,0,0-0.1,0-0.1c1-3.5-3.4-5.7-5.4-2.9c-0.3,0.4-0.8-0.1-0.6-0.5
	c2.1-4.2,7-2.4,8.3,1.4c2,5.9-4.4,10.2-9.1,9.5c-5.5-0.8-9.4-6.4-9.5-12.1c-0.1-6,4.4-11,9.5-12.8c5.5-1.9,11.9,1.2,15.2,5.9
	s3.8,10.6,2.1,16.1c-3.7,12.2-16.6,15.8-26.5,9.8c-10.7-6.5-12.3-21.6-6.3-32.3c1.1-1.9,2.4-3.7,4-5.2c1.1-1,1.1-2.7,0.1-3.7
	c-0.5-0.5-1.2-0.8-1.9-0.8h-7.8c-0.8,0-1.6,0.4-2.1,1.1c-3.5,4.9-5.4,10.8-5.5,16.9c0,3.5,0.8,6.9,2.2,10.1c1.4,3,3.9,4.9,5.6,7.6
	c0.1,0.1,0,0.2,0,0.3c-0.1,0-0.1,0-0.2,0c-3.1-0.7-5.9-4.3-7.8-6.8c-2.4-3.3-4-7.1-4.6-11.1c-0.7-4.8,0.1-9.7,2.3-14
	c0.7-1.3,0.2-2.9-1.1-3.6c-0.4-0.2-0.8-0.3-1.2-0.3H58.2c-1.5,0-2.6,1.2-2.6,2.7c0,0.4,0.1,0.8,0.3,1.2c2.1,4.3,2.9,9.2,2.3,14
	c-0.6,4-2.2,7.8-4.6,11.1c-1.8,2.6-4.7,6.1-7.8,6.8c-0.1,0-0.2,0-0.2-0.1c0-0.1,0-0.1,0-0.2c1.7-2.7,4.2-4.6,5.6-7.6
	c1.5-3.2,2.2-6.6,2.2-10.1c0-6.1-1.9-12-5.5-16.9c-0.5-0.7-1.3-1.1-2.1-1.1H38c-1.5,0-2.6,1.2-2.6,2.6c0,0.7,0.3,1.4,0.8,1.9
	c1.6,1.5,3,3.3,4.1,5.2c6,10.6,4.4,25.8-6.3,32.3c-10,6-22.8,2.4-26.5-9.8c-1.6-5.4-1.2-11.4,2.1-16.1s9.7-7.8,15.2-5.9
	c5,1.8,9.6,6.8,9.5,12.8c-0.1,5.7-4,11.3-9.5,12.1c-4.7,0.7-11.1-3.6-9.1-9.5c1.3-3.8,6.2-5.6,8.3-1.4c0.2,0.4-0.3,0.9-0.6,0.5
	c-1-1.4-3-1.6-4.3-0.5c-1,0.8-1.5,2.2-1,3.5c0.9,2.6,3.7,4,6.4,3.2c4-1.4,7.2-6.3,4.9-10.7c-2.1-4.1-6.3-6.2-10.5-4.6
	c-4,1.5-6.8,5.3-7,9.6c-0.2,8,6.2,15.4,14,13.8c8.5-1.7,14-9.9,12.4-18.4c-1.1-6.2-4.4-11.5-9.8-14.3c-5.1-2.6-11.4-3-16.5-0.3
	c-10.7,5.7-15.1,20-8.8,31.1C9.9,1323.9,24.5,1325.7,36.1,1320z"/>
<path class="st0" d="M110.5,1258.1H23.5v7.8c0,1.5,1.2,2.6,2.6,2.6h0h81.7c1.5,0,2.6-1.2,2.6-2.6l0,0V1258.1z"/>
</svg>
