<svg id="Layer_1" data-name="Layer 1" xmlns="http://www.w3.org/2000/svg" viewBox="0 0 80.5 542.5"><defs><style>.cls-1{fill:#e53616;}</style></defs><title>Untitled-1</title><path class="cls-1" d="M41.42,85.34c-.89,0-1.61,4.32-1.61,9.7V458.45H43V95C43,89.66,42.32,85.34,41.42,85.34Z" transform="translate(-20.5 -0.5)"/><path class="cls-1" d="M68.32,27.42c2.61-.16,4.86-1.85,7.15-3.33.23-.13.42-.29.65-.42h-12A3.92,3.92,0,0,0,68.32,27.42Z" transform="translate(-20.5 -0.5)"/><path class="cls-1" d="M53.2,27.43a3.93,3.93,0,0,0,4.15-3.72h-12c.23.13.43.29.66.42C48.3,25.57,50.56,27.26,53.2,27.43Z" transform="translate(-20.5 -0.5)"/><path class="cls-1" d="M91.89,12.21H29.66l1.11,7.09h60Z" transform="translate(-20.5 -0.5)"/><path class="cls-1" d="M51.08,85.34c-.9,0-1.61,4.32-1.61,9.7V458.45h3.22V95C52.69,89.66,52,85.34,51.08,85.34Z" transform="translate(-20.5 -0.5)"/><path class="cls-1" d="M70.4,85.34c-.9,0-1.61,4.32-1.61,9.7V458.45H72V95C72,89.66,71.26,85.34,70.4,85.34Z" transform="translate(-20.5 -0.5)"/><path class="cls-1" d="M60.72,85.34c-.88,0-1.59,4.85-1.59,10.88V458.45h3.22V96.16C62.32,90.19,61.61,85.34,60.72,85.34Z" transform="translate(-20.5 -0.5)"/><path class="cls-1" d="M95.91.5H25.61V7.84h70.3Z" transform="translate(-20.5 -0.5)"/><path class="cls-1" d="M80.05,85.34c-.89,0-1.61,4.32-1.61,9.7V458.45h3.22V95C81.66,89.66,80.92,85.34,80.05,85.34Z" transform="translate(-20.5 -0.5)"/><path class="cls-1" d="M38.28,82.72a4.59,4.59,0,0,1,3.43-1.65,5.28,5.28,0,0,1,4.67,3.79,5.26,5.26,0,0,1,4.67-3.79c2.15,0,4,1.69,4.76,4.08.82-2.39,2.71-4.08,4.93-4.08s4.08,1.69,4.93,4.08c.75-2.39,2.61-4.08,4.77-4.08s3.85,1.57,4.67,3.79a5.26,5.26,0,0,1,4.67-3.79,4.62,4.62,0,0,1,3.43,1.65V75.26H38.28Z" transform="translate(-20.5 -0.5)"/><path class="cls-1" d="M79.29,27.14c-3.86,2.22-7.48,5.44-11.92,5a7.94,7.94,0,0,1-6.59-6.06,7.91,7.91,0,0,1-6.6,6.06c-4.44.41-8.06-2.85-11.92-5-7-4-15.8-2.72-20,6-3.79,7.83-1.14,17.93,5.25,22a9.39,9.39,0,0,0,9.93-.24c3.23-2,5.22-5.69,5.88-10.11.91-6.35-2.52-11.87-7.38-13-4.64-1.07-8.49,4.17-8.36,9.82a7.65,7.65,0,0,0,4.18,6.76c2.55,1.11,5.06-.37,6.33-3.26a5.93,5.93,0,0,0-2.94-7.58,2.92,2.92,0,0,0-3.82,2.26c-.62,2.48,2,4,3.24,2.06.16-.28.49.09.36.38-1.24,3-4.22,1.73-5-1a5.25,5.25,0,0,1,5.46-6.73C38.67,35,41,38.89,41.09,43a9.75,9.75,0,0,1-5.68,9c-3.3,1.36-7.12-.82-9.11-4.16A15.06,15.06,0,0,1,25,36.46c2.22-8.66,10-11.18,15.9-6.93,6.44,4.58,7.38,15.3,3.76,22.8a15.13,15.13,0,0,1-6.47,6.89H48.83a23.23,23.23,0,0,0,3.75-12.7,19.48,19.48,0,0,0-1.34-7.14c-.85-2.14-2.32-3.46-3.36-5.36-.07-.12,0-.24.13-.2,1.89.49,3.59,3,4.7,4.82a20,20,0,0,1,2.78,7.88,19.28,19.28,0,0,1-2.81,12.66H68.84A19.22,19.22,0,0,1,66,46.52a19.89,19.89,0,0,1,2.78-7.88c1.11-1.81,2.8-4.33,4.67-4.82.09,0,.19.08.13.2-1,1.9-2.52,3.22-3.37,5.36a19.32,19.32,0,0,0-1.34,7.14,23.24,23.24,0,0,0,3.76,12.7H83.27a15.32,15.32,0,0,1-6.46-6.89c-3.6-7.5-2.65-18.22,3.75-22.8,6-4.25,13.68-1.73,15.9,6.93a15.08,15.08,0,0,1-1.27,11.38c-2,3.34-5.81,5.52-9.11,4.16a9.79,9.79,0,0,1-5.68-9c.06-4,2.38-8,5.68-8.54a5.23,5.23,0,0,1,5.45,6.73c-.78,2.72-3.72,4-5,1-.13-.29.19-.62.36-.38,1.21,1.9,3.85.42,3.23-2.06a3,3,0,0,0-3.82-2.26A5.94,5.94,0,0,0,83.4,45c1.24,2.89,3.79,4.41,6.34,3.26a7.63,7.63,0,0,0,4.17-6.76c.14-5.65-3.72-10.89-8.39-9.78-4.86,1.16-8.29,6.68-7.38,13,.66,4.38,2.65,8.13,5.88,10.11a9.47,9.47,0,0,0,9.93.24c6.4-4,9-14.14,5.25-22C95.06,24.42,86.24,23.1,79.29,27.14Z" transform="translate(-20.5 -0.5)"/><path class="cls-1" d="M34.69,70.89H86.86V63.55H34.69Z" transform="translate(-20.5 -0.5)"/><path class="cls-1" d="M53.12,516.23c-2.69.16-5,1.74-7.36,3.13-.23.12-.43.27-.67.39H57.38A3.93,3.93,0,0,0,53.12,516.23Z" transform="translate(-20.5 -0.5)"/><path class="cls-1" d="M68.18,516.23a3.8,3.8,0,0,0-4,3.52H75.81c-.22-.12-.41-.27-.64-.39C73,518,70.75,516.39,68.18,516.23Z" transform="translate(-20.5 -0.5)"/><path class="cls-1" d="M29.73,531H91.78l-1.1-7H30.87Z" transform="translate(-20.5 -0.5)"/><path class="cls-1" d="M25.43,543H96.08v-7H25.43Z" transform="translate(-20.5 -0.5)"/><path class="cls-1" d="M83.18,460.88a4.57,4.57,0,0,1-3.42,1.64,5.25,5.25,0,0,1-4.66-3.78,5.25,5.25,0,0,1-4.66,3.78c-2.15,0-4-1.68-4.76-4.07-.81,2.39-2.71,4.07-4.92,4.07s-4.08-1.68-4.92-4.07c-.75,2.39-2.61,4.07-4.76,4.07a5.24,5.24,0,0,1-4.66-3.78c-.82,2.22-2.61,3.78-4.66,3.78a4.59,4.59,0,0,1-3.43-1.64v7.44H83.18Z" transform="translate(-20.5 -0.5)"/><path class="cls-1" d="M42.19,516.18c3.85-2.19,7.48-5.37,11.92-5a7.91,7.91,0,0,1,6.6,6,7.85,7.85,0,0,1,6.6-6c4.44-.41,8.07,2.81,11.92,5,7,4,15.81,2.69,20-5.9,3.79-7.73,1.14-17.7-5.26-21.69a9.49,9.49,0,0,0-9.93.25c-3.23,2-5.22,5.61-5.88,10-.91,6.26,2.52,11.72,7.39,12.86,4.63,1.05,8.49-4.11,8.36-9.69a7.53,7.53,0,0,0-4.18-6.67c-2.55-1.1-5.07.36-6.34,3.21A5.85,5.85,0,0,0,86.35,506a2.93,2.93,0,0,0,3.82-2.24c.62-2.44-2-3.95-3.23-2-.17.28-.49-.08-.36-.37,1.24-2.93,4.21-1.71,5,1A5.19,5.19,0,0,1,86.09,509c-3.27-.57-5.59-4.39-5.68-8.42a9.6,9.6,0,0,1,5.68-8.92c3.3-1.34,7.12.82,9.11,4.11A14.71,14.71,0,0,1,96.47,507c-2.22,8.54-10,11-15.9,6.83-6.44-4.51-7.38-15.09-3.76-22.5a15,15,0,0,1,6.47-6.8H72.66a22.72,22.72,0,0,0-3.75,12.54,19,19,0,0,0,1.34,7c.85,2.11,2.32,3.41,3.36,5.29.07.12,0,.24-.13.2-1.89-.49-3.59-3-4.7-4.76A19.44,19.44,0,0,1,66,497.06a18.77,18.77,0,0,1,2.81-12.5H52.64a18.71,18.71,0,0,1,2.81,12.5,19.44,19.44,0,0,1-2.78,7.77c-1.11,1.79-2.8,4.27-4.67,4.76-.09,0-.19-.08-.13-.2,1.05-1.88,2.52-3.18,3.37-5.29a18.84,18.84,0,0,0,1.34-7,22.73,22.73,0,0,0-3.76-12.54H38.21a15.19,15.19,0,0,1,6.46,6.8c3.6,7.41,2.65,18-3.75,22.5C34.94,518,27.23,515.53,25,507a14.73,14.73,0,0,1,1.27-11.24c2-3.29,5.82-5.45,9.12-4.11a9.66,9.66,0,0,1,5.68,8.92c-.07,4-2.38,7.85-5.68,8.42a5.18,5.18,0,0,1-5.46-6.63c.79-2.69,3.73-3.91,5-1,.13.29-.2.61-.36.37-1.21-1.88-3.86-.41-3.24,2A3,3,0,0,0,35.14,506a5.84,5.84,0,0,0,2.93-7.49c-1.24-2.85-3.78-4.35-6.33-3.21A7.52,7.52,0,0,0,27.56,502c-.13,5.58,3.72,10.74,8.39,9.65,4.87-1.14,8.3-6.6,7.38-12.86-.65-4.32-2.64-8-5.88-10a9.54,9.54,0,0,0-9.92-.25c-6.41,3.95-9,14-5.26,21.69C26.41,518.87,35.23,520.17,42.19,516.18Z" transform="translate(-20.5 -0.5)"/><path class="cls-1" d="M86.87,472.55H34.65v7.75H86.87Z" transform="translate(-20.5 -0.5)"/></svg>